<svg width="500" height="500" viewBox="0 0 500 500" xmlns="http://www.w3.org/2000/svg">
<defs>
<linearGradient id="bg" x1="0" y1="0" x2="0" y2="1"><stop stop-color="#F6F8FA"/><stop offset="1" stop-color="#E8EAEE"/></linearGradient>
<linearGradient id="s" x1="0" y1="0" x2="0" y2="1"><stop stop-color="#FFFFFF"/><stop offset="1" stop-color="#F0F0EA"/></linearGradient>
<filter id="f" x="-10%" y="-10%" width="120%" height="130%"><feDropShadow dx="0" dy="5" stdDeviation="9" flood-color="rgba(0,0,0,0.13)"/></filter>
</defs>
<rect width="500" height="500" fill="url(#bg)"/>
<rect y="430" width="500" height="70" fill="#DDE0E4"/>
<line x1="0" y1="430" x2="500" y2="430" stroke="#C8CCCC" stroke-width="1.5"/>
<g filter="url(#f)">
  <rect x="55" y="118" width="390" height="18" rx="4" fill="url(#s)" stroke="#E0E0DA" stroke-width="1"/>
  <rect x="55" y="133" width="390" height="10" rx="0 0 4 4" fill="#D0D0C8"/>
</g>
<g filter="url(#f)">
  <rect x="55" y="230" width="390" height="18" rx="4" fill="url(#s)" stroke="#E0E0DA" stroke-width="1"/>
  <rect x="55" y="245" width="390" height="10" rx="0 0 4 4" fill="#D0D0C8"/>
</g>
<g filter="url(#f)">
  <rect x="55" y="342" width="390" height="18" rx="4" fill="url(#s)" stroke="#E0E0DA" stroke-width="1"/>
  <rect x="55" y="357" width="390" height="10" rx="0 0 4 4" fill="#D0D0C8"/>
</g>
<rect x="64" y="128" width="14" height="240" rx="7" fill="#C8C8C0"/>
<rect x="422" y="128" width="14" height="240" rx="7" fill="#C8C8C0"/>
<circle cx="71" cy="122" r="5" fill="#A0A0A0" stroke="#787878" stroke-width="1"/>
<circle cx="429" cy="122" r="5" fill="#A0A0A0" stroke="#787878" stroke-width="1"/>
<rect x="120" y="95" width="20" height="23" rx="6" fill="#80DEEA"/>
<ellipse cx="130" cy="95" rx="8" ry="3" fill="#4DD0E1"/>
<rect x="155" y="92" width="18" height="26" rx="6" fill="#B2EBF2"/>
<ellipse cx="164" cy="92" rx="7" ry="3" fill="#80DEEA"/>
<rect x="340" y="94" width="22" height="24" rx="5" fill="#F48FB1"/>
<ellipse cx="351" cy="94" rx="9" ry="3" fill="#F06292"/>
<rect x="110" y="200" width="26" height="18" rx="4" fill="#9A7020"/>
<ellipse cx="123" cy="200" rx="12" ry="5" fill="#AC8028"/>
<path d="M123,198 Q111,190 110,174 Q119,170 121,190Z" fill="#43A047"/>
<path d="M123,198 Q124,181 130,170 Q137,180 130,197Z" fill="#66BB6A"/>
<rect x="290" y="194" width="80" height="14" rx="7" fill="#CE93D8" opacity="0.85"/>
<rect x="298" y="197" width="64" height="8" rx="4" fill="#AB47BC" opacity="0.7"/>
<rect x="135" y="313" width="18" height="29" rx="2" fill="#EF5350"/>
<rect x="155" y="318" width="15" height="24" rx="2" fill="#1565C0"/>
<rect x="172" y="321" width="13" height="21" rx="2" fill="#FFA726"/>
<rect x="320" y="316" width="28" height="16" rx="5" fill="#F0EDE8"/>
<ellipse cx="334" cy="316" rx="10" ry="4" fill="#E5E2DC"/>
<rect x="332" y="302" width="3" height="14" fill="#BDBDBD"/>
<path d="M330,302Q329,296,333,294Q337,296,336,302Z" fill="#FFB300"/>
</svg>
